<mxfile host="app.diagrams.net" modified="2023-10-25T02:00:22.922Z" agent="Mozilla/5.0 (Windows NT 10.0; Win64; x64) AppleWebKit/537.36 (KHTML, like Gecko) Chrome/118.0.0.0 Safari/537.36" version="22.0.7" etag="HF28gTzRYSpQzNKjUiJr" type="github">
  <diagram name="Page-1" id="4AA34BMKbKQ4qk6gtvcQ">
    <mxGraphModel>
      <root>
        <mxCell id="0" />
        <mxCell id="1" parent="0" />
      </root>
    </mxGraphModel>
  </diagram>
</mxfile>
